<?xml version="1.0" standalone="no"?>
<!DOCTYPE svg PUBLIC "-//W3C//DTD SVG 20010904//EN"
 "http://www.w3.org/TR/2001/REC-SVG-20010904/DTD/svg10.dtd">
<svg version="1.0" xmlns="http://www.w3.org/2000/svg"
 width="192.000000pt" height="192.000000pt" viewBox="0 0 192.000000 192.000000"
 preserveAspectRatio="xMidYMid meet">

<g transform="translate(0.000000,192.000000) scale(0.100000,-0.100000)"
fill="#0095D9" stroke="none">
<path d="M865 1827 c-193 -51 -315 -214 -315 -425 -1 -141 -68 -312 -164 -418
-29 -33 -91 -86 -137 -118 -105 -75 -143 -109 -179 -166 -109 -172 -65 -412
97 -536 71 -54 145 -78 248 -78 89 -1 91 0 211 56 143 68 218 88 336 88 118 0
171 -13 323 -79 129 -56 130 -56 230 -56 93 0 105 2 165 32 121 60 198 159
226 294 12 60 12 78 0 138 -28 135 -79 204 -218 295 -142 93 -237 213 -288
362 -12 32 -27 117 -36 187 -8 71 -23 151 -33 178 -40 104 -136 197 -240 234
-62 22 -167 27 -226 12z m207 -135 c125 -55 193 -201 155 -333 -22 -73 -68
-124 -177 -197 l-91 -61 -102 69 c-137 93 -176 153 -176 275 -1 154 136 282
290 271 31 -2 76 -13 101 -24z m208 -523 c0 -25 71 -158 115 -214 45 -58 46
-74 5 -75 -8 0 -60 -23 -115 -50 l-99 -49 -41 77 c-22 42 -53 94 -69 115 -17
22 -25 41 -20 45 5 4 43 30 84 58 41 29 86 63 99 78 26 28 41 33 41 15z m-596
-32 c23 -18 74 -55 114 -81 l72 -48 -34 -46 c-18 -26 -48 -76 -66 -112 -18
-36 -34 -67 -35 -68 -2 -2 -46 17 -99 42 -53 26 -109 49 -126 52 -16 4 -30 8
-30 10 0 2 20 32 45 67 45 64 105 181 105 205 0 18 9 15 54 -21z m313 -276
c42 -64 58 -99 49 -108 -12 -12 -149 -15 -166 -4 -12 9 -12 14 3 45 24 51 66
116 75 116 4 0 22 -22 39 -49z m-407 -153 c58 -28 106 -51 107 -52 1 -1 -2
-56 -7 -122 -7 -99 -13 -130 -33 -170 -103 -202 -383 -210 -492 -13 -26 47
-30 64 -30 134 0 70 4 87 30 134 55 99 164 156 275 144 25 -3 92 -28 150 -55z
m1058 26 c61 -30 114 -94 133 -161 15 -55 8 -158 -15 -205 -42 -87 -132 -148
-232 -156 -90 -7 -155 18 -221 83 -62 63 -78 111 -88 261 l-6 101 88 43 c48
23 106 49 128 56 56 19 148 10 213 -22z m-552 -116 c2 -2 8 -51 13 -108 6 -58
13 -119 17 -136 l6 -32 -53 10 c-54 10 -223 5 -268 -8 -21 -6 -23 -5 -16 12 4
10 12 66 17 124 5 58 11 114 13 125 4 19 11 20 136 18 72 -1 133 -3 135 -5z"/>
</g>
</svg>
